<mxfile host="app.diagrams.net" modified="2023-06-14T22:18:30.674Z" agent="Mozilla/5.0 (Windows NT 10.0; Win64; x64) AppleWebKit/537.36 (KHTML, like Gecko) Chrome/114.0.0.0 Safari/537.36" version="21.4.0" etag="v0YxoxnWsSKvk4xbKyH2" type="github">
  <diagram name="Page-1" id="w1NXfOQ2WNANbovqwM4W">
    <mxGraphModel>
      <root>
        <mxCell id="0" />
        <mxCell id="1" parent="0" />
      </root>
    </mxGraphModel>
  </diagram>
</mxfile>
